Patient4_TMGait_0pt7_02_left_26_EMG.mot
version=1
nRows=40
nColumns=33
inDegrees=no
endheader
time	1LAddLong	2LGlutMax	3LGlutMed	4LIliopsoas	5LSemiMemb	6LBicFemLong	7LRecFem	8LVastMed	9LVastLat	10LGasMed	11LTibAnt	12lTibPost	13LPeroneusLong	14LSol	15LExtDigLong	16LFlexDigLong	17RAddLong	18RGlutMax	19RGlutMed	20RIliopsoas	21RSemiMemb	22RBicFemLong	23RRecFem	24RVastMed	25RVastLat	26RGasMed	27RTibAnt	28RTibPost	29RPeroneusLong	30RSol	31RExtDigLong	32RFlexDigLong
30.005	0.001221	0.625	-0.087128	-0.005493	-0.029297	-0.85968	0.61676	0.026703	-0.050201	-0.78796	0.046844	0.24109	0.30136	-0.66086	-0.11444	-0.043182	-0.046082	-0.37201	0.46783	-0.21042	-0.20355	-0.23651	1.0562	-0.19302	-0.084534	-0.007782	-0.75302	-0.007629	0.086517	0.25604	-0.005493	-0.010071
30.006	-0.002747	0.54733	0.020142	0.024719	-0.014801	-0.67184	0.38849	0.027161	-0.037231	-0.93918	0.054169	0.046234	0.29541	-0.29114	-0.096283	-0.015717	-0.056458	-0.3122	0.19653	-0.11932	-0.20889	-0.17975	1.0396	-0.1384	-0.05661	-0.007629	-0.52063	-0.006256	0.13245	0.18585	-0.002136	-0.009766
30.007	-0.017242	0.47073	0.043182	0.052948	-0.017853	-0.11475	0.08255	0.019379	0.011902	-0.61996	0.05661	0.005951	-0.22278	-0.12817	-0.037842	0.023346	-0.077515	-0.22217	-0.2858	0.050354	-0.17425	-0.1712	1.0275	-0.16388	-0.06134	0.000763	-0.16922	-0.007019	0.10895	0.13245	-0.003662	-0.009308
30.008	0.000153	0.40832	0.10162	0.005188	-0.014343	0.2475	-0.20599	0.003052	0.14358	-0.47928	-0.004272	-0.016937	-0.08667	0.32669	0.041199	0.05661	-0.054321	-0.19684	-0.050049	0.28381	-0.15686	-0.14816	1.0246	-0.16068	-0.04837	0.003815	-0.24704	-0.009308	0.060577	0.11169	-0.003357	-0.001068
30.009	0.007019	0.29984	0.19806	-0.007477	-0.056305	0.32333	-0.48279	0.00946	0.1506	-0.39566	-0.048065	0.0177	-0.33966	0.52078	0.035706	0.05722	-0.033875	-0.20035	0.16739	0.46692	-0.12634	-0.040131	1.0454	-0.19486	-0.049133	0.002441	-0.17395	-0.007477	0.036621	0.10269	-0.000916	0.000305
30.01	0.001373	0.21683	-0.011749	0.015564	0.006866	0.17639	-0.67902	0.013275	0.10712	-0.31174	-0.019836	0.030823	-0.34973	0.40192	0.011444	0.051575	-0.006256	-0.17731	-0.071259	0.53925	-0.14267	0.01709	1.0019	-0.21835	-0.021973	-0.009918	0.18539	-0.008392	-0.098267	0.094452	-0.001526	-0.007629
30.011	0.006866	0.16144	-0.081482	0.002441	-0.014038	-0.1712	-0.81192	0.016479	-0.018921	-0.31586	-0.022888	0.02594	0.53604	0.1294	-0.035095	0.037994	0.045624	-0.091553	-0.081024	0.3302	-0.13367	-0.059357	0.97549	-0.19348	-0.029449	-0.002136	0.29984	-0.006714	-0.18234	0.057526	-0.001221	-0.003357
30.012	0.015106	0.15869	0.019073	0.021057	-0.013885	0.070343	-1.0237	0.024872	-0.042725	-0.2243	-0.019226	0.002899	0.50781	0.23193	0.044098	0.035095	0.058441	-0.035248	0.002441	0.16342	-0.094604	-0.092773	1.008	-0.26566	-0.027008	0.005035	-0.021057	-0.009766	-0.015869	-0.018616	-0.002747	-0.009003
30.013	0.019379	0.22156	0.11108	0.007019	-0.038757	0.01358	-1.1827	0.033569	-0.025024	-0.082397	0.015869	-0.016632	0.027771	0.12726	-0.073547	0.023804	0.060577	-0.033875	0.18204	0.12924	-0.090332	-0.067749	0.93231	-0.31632	-0.032043	0.004883	-0.094299	-0.006256	0.054932	-0.039673	0.001373	-0.009155
30.014	0.018463	0.21316	0.074615	0.019531	-0.076599	0.018311	-1.315	0.012817	-0.049286	-0.09903	-0.013123	-0.029297	-0.1384	0.03067	-0.050964	0.062103	-0.014801	-0.10666	0.002747	0.053711	-0.12695	-0.042419	0.88654	-0.33203	-0.03479	-0.000305	0.075989	-0.007477	-0.018768	0.014343	-0.001373	-0.013123
30.015	0.025482	0.25589	0.1181	0.014191	-0.11963	-0.42587	-1.4763	-0.007477	0.05127	-0.1001	-0.003204	-0.042725	-0.47195	0.093842	-0.009003	0.056305	0.009766	-0.21011	-0.028839	-0.071564	-0.13763	-0.046082	0.82123	-0.34653	-0.009766	-0.001373	-0.014954	-0.00824	0.021515	-0.024261	-0.00061	-0.007172
30.016	0.021667	0.29541	0.16953	0.022125	-0.19165	-0.42572	-1.586	-0.031738	0.074921	-0.08728	0.018768	-0.051422	-0.44449	0.12985	-0.00412	0.058899	-0.00061	-0.30289	-0.015717	-0.13168	-0.16892	-0.042572	0.76141	-0.31616	0.000916	-0.000305	-0.13901	-0.007782	0.068817	0.024261	-0.002136	-0.012817
30.017	0.012817	0.37308	0.26855	0.021667	-0.11658	0.023346	-1.6026	-0.032501	0.094604	0.010071	0.011902	-0.063019	-0.025024	0.019073	-0.14496	0.038757	-0.028229	-0.23697	0.036316	-0.070953	-0.16296	-0.045624	0.74539	-0.29511	-0.001526	0.007019	-0.14053	-0.007019	0.086212	0.085449	-0.003662	-0.007477
30.018	0.000763	0.50842	0.20859	0.016022	-0.033875	0.2034	-1.4168	-0.02243	0.10193	0.10895	0.012665	-0.065308	-0.006104	-0.024567	-0.0383	0.03418	-0.04837	-0.27298	-0.015717	-0.006714	-0.16174	-0.041809	0.68512	-0.20233	0.016174	0.001678	-0.088501	-0.007019	0.094147	0.13184	0.000763	-0.015106
30.019	-0.003357	0.64102	0.19363	0.001068	-0.045319	0.29785	-1.2813	-0.003204	0.050354	0.088196	0.011292	-0.079803	-0.19196	0.043335	-0.007172	0.033112	-0.011292	-0.30624	0.068512	0.040436	-0.16129	-0.059052	0.67093	-0.22095	0.014191	0.001678	-0.052185	-0.006409	0.068054	0.13763	0.000153	-0.005341
30.02	-0.006104	0.92239	0.18951	-0.020905	-0.10834	0.29602	-1.2997	-0.004425	0.057831	0.041809	-0.010681	-0.083008	-0.2066	0.089111	-0.077667	0.035248	0.040894	-0.35492	-0.00412	0.031281	-0.10147	-0.03006	0.73334	-0.17044	-0.018616	0.004425	0.003052	-0.004425	0.041351	0.10056	-0.004578	-0.013275
30.021	-0.007629	1.1385	0.1149	-0.024414	-0.15717	-0.028381	-1.2576	-0.014648	-0.022583	0.093079	-0.016174	-0.081024	-0.19714	0.063019	-0.04776	0.025787	0.070648	-0.35202	0.013428	-0.086517	-0.069733	-0.001678	0.75256	-0.11246	-0.029907	0.000916	0.16052	-0.004578	-0.013733	0.062561	-0.000916	-0.008392
30.022	0.015411	1.2552	0.037231	-0.014191	-0.07431	-0.4216	-1.2535	-0.011902	-0.043945	0.087585	-0.015411	-0.083771	-0.083923	0.076752	0.041351	0.024414	0.076599	-0.38742	-0.03952	-0.12161	-0.031128	0.012512	0.7106	-0.02243	-0.023193	-0.000916	0.24765	-0.002136	-0.033112	0.038757	0.000916	-0.011902
30.023	0.02533	1.45	-0.055237	0.014343	0.003357	-0.22873	-1.2596	-0.004578	-0.064697	0.11032	-0.002289	-0.084686	0.16388	0.14923	0.10147	0.007019	0.025177	-0.44739	-0.03891	-0.14084	-0.018616	-0.023956	0.70602	0.02594	-0.041504	0.000916	0.13779	-0.006409	-0.077667	0.023651	0.013275	-0.013885
30.024	0.031281	1.6432	-0.15366	0.005493	-0.015259	0.28229	-1.1856	0.011444	-0.045624	0.19684	0.015106	-0.078888	0.084991	0.12924	0.13092	0.010834	0.021057	-0.57159	0.012512	-0.1001	-0.033417	-0.069885	0.72449	-0.048065	-0.054932	0.000153	0.073395	-0.005341	-0.087738	0.014038	-0.006866	-0.015259
30.025	0.026245	2.0627	-0.056	-0.018463	-0.064087	0.61172	-1.0756	-0.00061	0.043182	0.19653	0.018768	-0.075836	0.10117	0.16647	0.098267	-0.005646	-0.027771	-0.6459	-0.041962	0.004883	-0.050201	-0.077057	0.7634	-0.055847	-0.079956	0.000916	0.071106	-0.006561	-0.10696	0.000763	-0.003662	-0.010834
30.026	0.028687	2.469	0.15808	-0.005188	-0.096436	0.61981	-1.0373	0.003967	0.058441	0.22049	-0.002136	-0.059204	0.14191	0.029449	-0.02533	-0.055542	-0.085754	-0.68771	-0.004425	0.096741	-0.081635	-0.025787	0.78171	-0.007782	-0.078125	-0.000458	0.097961	-0.003357	-0.13901	-0.005646	-0.00473	-0.015411
30.027	0.018158	2.5096	0.13687	0.00824	-0.086975	0.54413	-1.0153	0.048676	0.005341	0.1738	-0.037079	-0.059662	0.06134	-0.15747	-0.01358	0.011444	-0.083313	-0.80902	-0.033722	0.16419	-0.085602	-0.014343	0.77057	0.010376	-0.08728	-0.00061	0.11185	-0.001221	-0.19974	-0.016937	-0.000916	-0.01297
30.028	0.018158	2.3857	0.061951	0.028534	-0.083466	0.61111	-1.0133	0.063019	-0.045013	0.038452	-0.049133	-0.1535	0.093384	-0.21347	0.11398	-0.002594	-0.021057	-0.91065	-0.016632	0.16907	-0.084991	-0.01709	0.77637	-0.033264	-0.071869	-0.000153	0.11551	-0.001373	-0.25864	-0.01358	-0.004272	-0.011139
30.029	0.016174	2.1613	0.070496	0.025787	-0.078125	0.62424	-0.96954	0.050964	-0.074463	-0.13992	-0.031281	0.39246	0.076447	-0.2298	0.12344	-0.18082	0.023651	-0.91812	0.015106	0.11765	-0.081024	0.022278	0.71549	0.061646	-0.049896	0.001068	0.1503	-0.006866	-0.20172	-0.001526	-0.002747	-0.016479
30.03	0.020142	1.6069	0.000153	0.024567	0.032959	0.59601	-0.94833	0.019379	-0.080261	-0.036469	0.019836	-0.14618	0.062561	-0.3363	0.13473	0.18768	0.071106	-1.0739	0.19318	0.002747	-0.10834	0.012054	0.70816	0.04425	-0.025177	0.000305	0.20325	-0.003662	-0.10056	-0.006714	-0.003052	-0.012054
30.031	0.033264	1.207	-0.15686	0.016785	0.043488	-0.021667	-0.96115	-0.031586	-0.025787	-0.010681	0.015106	-0.087891	0.11307	-0.43243	0.22675	0.12573	-0.003967	-1.179	0.24918	-0.12039	-0.15198	0.009155	0.69321	-0.023651	-0.009766	-0.005493	0.10788	-0.001221	0.033264	-0.033875	-0.003204	-0.009155
30.032	0.03952	0.99518	-0.19455	0.011292	0.06134	-0.38086	-0.93765	-0.052032	0.041199	-0.047302	-0.052795	0.037079	0.083466	-0.56747	0.23926	-0.18234	0.017242	-1.2622	0.063171	-0.058594	-0.16754	0.001221	0.58441	-0.059357	0.006104	0.003662	0.067596	-0.002136	0.20111	-0.036469	-0.000763	-0.014191
30.033	0.018616	0.76813	-0.20844	0.007172	0.04425	-0.10284	-0.82413	-0.049133	0.00946	-0.029297	-0.062103	-0.025024	0.070648	-0.39124	0.18051	-0.16449	0.010071	-1.3223	0.15717	-0.007172	-0.13107	0.03479	0.56076	-0.066833	-0.000458	0.005188	-0.19913	-0.000305	0.289	-0.051727	-0.003204	-0.015564
30.034	0.011444	0.53131	-0.13412	0.018005	-0.007477	0.026093	-0.70709	-0.046997	0.034943	0.43778	-0.027008	-0.023651	0.094452	-0.14099	0.089722	-0.068512	0.075378	-1.4273	0.2214	-0.033417	-0.10925	0.056915	0.53131	-0.067291	-0.020752	-0.000763	-0.093231	-0.000458	0.2359	-0.046997	0.001526	-0.012817
30.035	0.011292	0.4953	-0.032806	0.022278	0.024109	-0.3009	-0.63248	-0.027466	0.06546	0.37125	-0.015564	-0.014191	0.11673	0.12756	-0.053253	-0.038452	0.071564	-1.434	0.080872	-0.10681	-0.084381	0.092163	0.52612	-0.034943	-0.00885	-0.010986	0.177	0	0.086365	-0.037231	-0.003662	-0.02121
30.036	0.014954	0.53787	0.053253	0.028381	0.024261	-0.11383	-0.64697	-0.01236	0.10422	-0.19241	0.00946	0.079498	0.14191	0.26337	-0.10742	-0.028381	0.070496	-1.4659	0.059509	-0.069733	-0.067902	0.13657	0.52307	-0.023193	0.012054	-0.012512	0.3952	-0.000916	-0.005035	-0.056305	-0.002747	-0.021057
30.037	0.008698	0.56778	0.057983	0.013733	0.021667	0.058746	-0.56793	-0.012665	0.12558	-0.30868	-0.037079	-0.007172	0.27863	0.17578	-0.14465	-0.022736	0.078888	-1.3483	0.15289	-0.078888	-0.041199	0.14053	0.53192	-0.050659	-0.001984	-0.014648	0.32913	-0.000305	-0.086517	-0.083466	-0.003052	-0.022583
30.038	0.007477	0.53482	-0.043793	0.021973	-0.041504	0.2301	-0.49454	-0.007324	0.040131	-0.030975	-0.026703	-0.066376	0.16907	-0.010834	-0.10956	-0.015106	0.10696	-1.3011	0.20248	-0.000916	-0.051422	0.12177	0.57785	-0.12085	-0.015411	0.004883	-0.018616	-0.001678	0.041809	-0.09491	-0.002136	-0.011749
30.039	0.014343	0.39902	-0.10529	0.010834	-0.063477	0.2153	-0.52734	0.007324	0.10025	0.10254	0.041504	-0.001068	0.033722	0.019226	-0.051117	-0.005341	0.11124	-1.2961	0.057831	-0.052948	-0.044556	0.075226	0.59052	-0.16312	-0.025177	0.006256	-0.22064	0.000763	0.1828	-0.14236	-0.005188	-0.019226
30.04	0.001373	0.29862	-0.034332	-0.002899	-0.049744	0.16937	-0.49194	0.010681	0.15808	0.36743	0.13626	0.002441	0.8606	-0.018311	0.024872	-0.00351	0.075531	-1.3095	0.31708	-0.14694	-0.031433	0.080872	0.57968	-0.19684	-0.013428	0.005646	0.001526	-0.002747	0.13825	-0.097046	-0.005493	-0.016174
30.041	-0.013428	0.25467	0.19486	-0.00473	-0.06134	0.050354	-0.52673	0.008392	0.15884	0.04303	0.21133	-0.042877	0.17288	-0.076141	0.10727	0.002289	0.069275	-1.1703	0.2594	-0.19379	-0.041962	0.053711	0.61813	-0.17746	-0.040894	-0.01297	-0.009155	0.000305	-0.032196	0.045624	-0.008392	-0.020905
30.042	-0.006561	0.07782	0.19272	0.010376	-0.062561	-0.068512	-0.47821	-0.006714	0.18539	-0.16007	0.22903	-0.053558	-0.33478	-0.12756	0.052643	-0.00824	0.097656	-1.1159	-0.18646	-0.11643	-0.064697	0.030823	0.6015	-0.16556	-0.03418	0.001221	-0.1683	0	0.061035	0.028076	-0.003662	-0.016785
30.043	-0.010681	-0.041046	0.21316	-0.006409	-0.054016	-0.10223	-0.43488	0.002747	0.14832	-0.26932	0.20294	-0.046082	-0.21805	-0.12909	0.11902	0.009308	0.076141	-1.0812	-0.31876	-0.061188	-0.072784	-0.012665	0.57388	-0.18906	-0.043488	0.010376	-0.26367	0.001526	0.1474	-0.002136	-0.002594	-0.022278
30.044	0	-0.15854	0.14572	0.012207	-0.045471	-0.45715	-0.42252	-0.00473	0.093994	-0.73044	0.023041	-0.040436	0.10132	-0.12268	0.053101	0.005493	-0.003967	-0.98709	-0.077667	-0.032501	-0.074921	-0.050354	0.54184	-0.14877	-0.023804	0.012054	-0.31937	0.000916	0.071564	-0.036011	-0.000916	-0.0177
